HIERARCHY
ROOT Hips
{
	OFFSET 0.00000 0.00000 0.00000
	CHANNELS 6 Xposition Yposition Zposition Zrotation Yrotation Xrotation 
	JOINT LHipJoint
	{
		OFFSET 0 0 0
		CHANNELS 3 Zrotation Yrotation Xrotation
		JOINT LeftUpLeg
		{
			OFFSET 1.41261 -1.82971 0.84908
			CHANNELS 3 Zrotation Yrotation Xrotation
			JOINT LeftLeg
			{
				OFFSET 2.52554 -6.93888 0.00000
				CHANNELS 3 Zrotation Yrotation Xrotation
				JOINT LeftFoot
				{
					OFFSET 2.56654 -7.05152 0.00000
					CHANNELS 3 Zrotation Yrotation Xrotation
					JOINT LeftToeBase
					{
						OFFSET 0.21698 -0.59616 1.85369
						CHANNELS 3 Zrotation Yrotation Xrotation
						End Site
						{
							OFFSET 0.00000 -0.00000 0.97832
						}
					}
				}
			}
		}
	}
	JOINT RHipJoint
	{
		OFFSET 0 0 0
		CHANNELS 3 Zrotation Yrotation Xrotation
		JOINT RightUpLeg
		{
			OFFSET -1.12808 -1.82971 0.84907
			CHANNELS 3 Zrotation Yrotation Xrotation
			JOINT RightLeg
			{
				OFFSET -2.53425 -6.96280 0.00000
				CHANNELS 3 Zrotation Yrotation Xrotation
				JOINT RightFoot
				{
					OFFSET -2.58413 -7.09983 0.00000
					CHANNELS 3 Zrotation Yrotation Xrotation
					JOINT RightToeBase
					{
						OFFSET -0.26437 -0.72636 1.92241
						CHANNELS 3 Zrotation Yrotation Xrotation
						End Site
						{
							OFFSET -0.00000 -0.00000 1.02667
						}
					}
				}
			}
		}
	}
	JOINT LowerBack
	{
		OFFSET 0 0 0
		CHANNELS 3 Zrotation Yrotation Xrotation
		JOINT Spine
		{
			OFFSET -0.02096 2.02288 -0.14752
			CHANNELS 3 Zrotation Yrotation Xrotation
			JOINT Spine1
			{
				OFFSET 0.03477 2.03136 -0.02358
				CHANNELS 3 Zrotation Yrotation Xrotation
				JOINT Neck
				{
					OFFSET 0 0 0
					CHANNELS 3 Zrotation Yrotation Xrotation
					JOINT Neck1
					{
						OFFSET 0.00174 1.74359 0.19336
						CHANNELS 3 Zrotation Yrotation Xrotation
						JOINT Head
						{
							OFFSET -0.03054 1.76140 -0.17751
							CHANNELS 3 Zrotation Yrotation Xrotation
							End Site
							{
								OFFSET -0.00863 1.77239 -0.08120
							}
						}
					}
				}
				JOINT LeftShoulder
				{
					OFFSET 0 0 0
					CHANNELS 3 Zrotation Yrotation Xrotation
					JOINT LeftArm
					{
						OFFSET 3.68685 1.32687 -0.67367
						CHANNELS 3 Zrotation Yrotation Xrotation
						JOINT LeftForeArm
						{
							OFFSET 4.76468 -0.00000 -0.00000
							CHANNELS 3 Zrotation Yrotation Xrotation
							JOINT LeftHand
							{
								OFFSET 3.52712 -0.00000 -0.00000
								CHANNELS 3 Zrotation Yrotation Xrotation
								JOINT LeftFingerBase
								{
									OFFSET 0 0 0
									CHANNELS 3 Zrotation Yrotation Xrotation
									JOINT LeftHandIndex1
									{
										OFFSET 0.85956 -0.00000 -0.00000
										CHANNELS 3 Zrotation Yrotation Xrotation
										End Site
										{
											OFFSET 0.69300 -0.00000 -0.00000
										}
									}
								}
								JOINT LThumb
								{
									OFFSET 0 0 0
									CHANNELS 3 Zrotation Yrotation Xrotation
									End Site
									{
										OFFSET 0.70358 -0.00000 0.70358
									}
								}
							}
						}
					}
				}
				JOINT RightShoulder
				{
					OFFSET 0 0 0
					CHANNELS 3 Zrotation Yrotation Xrotation
					JOINT RightArm
					{
						OFFSET -3.31304 1.28268 -0.97357
						CHANNELS 3 Zrotation Yrotation Xrotation
						JOINT RightForeArm
						{
							OFFSET -4.90577 -0.00000 -0.00000
							CHANNELS 3 Zrotation Yrotation Xrotation
							JOINT RightHand
							{
								OFFSET -3.42692 -0.00000 0.00000
								CHANNELS 3 Zrotation Yrotation Xrotation
								JOINT RightFingerBase
								{
									OFFSET 0 0 0
									CHANNELS 3 Zrotation Yrotation Xrotation
									JOINT RightHandIndex1
									{
										OFFSET -0.74096 -0.00000 -0.00000
										CHANNELS 3 Zrotation Yrotation Xrotation
										End Site
										{
											OFFSET -0.59738 -0.00000 -0.00000
										}
									}
								}
								JOINT RThumb
								{
									OFFSET 0 0 0
									CHANNELS 3 Zrotation Yrotation Xrotation
									End Site
									{
										OFFSET -0.60650 -0.00000 0.60650
									}
								}
							}
						}
					}
				}
			}
		}
	}
}
MOTION
Frames: 14
Frame Time: .0083333
14.3407 17.9978 19.9652 -4.2301 43.1834 -6.6682 0.0000 0.0000 0.0000 -15.7008 1.8158 1.9924 1.2096 6.9771 19.6476 1.1963 2.3288 -21.6205 4.6615 -12.9922 -39.3391 0.0000 0.0000 0.0000 23.4365 -4.9156 1.2887 -0.7531 -5.5428 15.4634 -0.0477 -6.3493 -10.2055 -0.3073 -3.5638 9.8526 -1.4052 1.1597 6.2987 1.2941 1.5035 -2.1640 1.9673 0.8211 -5.8613 1.1329 4.0385 -13.6968 -4.2483 6.5740 21.7846 -0.8400 2.7727 9.3013 0.0000 0.0000 0.0000 -98.7301 12.7915 16.1159 36.5044 -45.8569 -15.8834 -0.0000 0.0000 -0.2980 4.8702 -19.1441 -1.6006 -7.1250 0.0000 -0.0000 -15.0976 11.2645 12.3036 0.0000 0.0000 0.0000 91.6693 -4.6794 8.2663 -14.9761 24.1127 -3.2162 0.0000 0.0000 2.9577 -4.8818 -32.7022 2.6420 7.1250 -0.0000 -0.0000 31.3819 -59.9333 -12.1499
14.3942 17.9791 20.0115 -2.6796 43.5874 -5.2657 0.0000 0.0000 0.0000 -17.3392 1.6067 2.0962 1.1762 6.8835 19.3708 1.1535 2.5314 -21.3454 4.7088 -13.0482 -39.5491 0.0000 0.0000 0.0000 21.8150 -5.6058 1.0827 -0.7460 -5.5172 15.3899 -0.0967 -5.7781 -10.5774 -0.2508 -3.2225 8.8987 -2.0442 1.1515 6.2552 1.0905 1.4255 -1.9289 2.1259 0.7962 -5.5973 1.6031 4.4603 -13.4269 -4.9297 7.1714 21.1328 -1.0845 3.0339 9.0898 0.0000 0.0000 0.0000 -97.9712 12.4177 16.2268 36.7832 -46.0443 -16.0838 -0.0000 0.0000 -1.1398 5.7870 -19.9468 -1.9802 -7.1250 0.0000 -0.0000 -14.4943 10.4248 12.0342 0.0000 0.0000 0.0000 90.6417 -3.8046 9.2779 -15.4090 24.7127 -3.3951 0.0000 0.0000 2.4921 -5.4983 -32.7356 2.9797 7.1250 -0.0000 -0.0000 30.7990 -60.1054 -12.0253
14.4260 17.9727 20.0455 -2.6361 43.6854 -4.7829 0.0000 0.0000 0.0000 -17.3637 1.6634 1.7931 1.1620 6.8433 19.2520 1.1563 2.6540 -21.4277 4.7378 -13.0823 -39.6772 0.0000 0.0000 0.0000 21.7479 -5.5902 0.7695 -0.7470 -5.5208 15.4003 -0.1100 -5.7186 -10.7853 -0.2132 -2.9726 8.2024 -1.8912 1.1056 6.4642 1.3741 1.3900 -1.8871 2.3368 0.7794 -5.6744 2.0779 4.9818 -13.2249 -5.6861 7.9564 20.8540 -1.3272 3.3708 9.0405 -0.0000 0.0000 0.0000 -97.5778 12.2310 15.7220 36.8275 -46.0738 -16.1156 -0.0000 0.0000 -1.7389 6.9016 -19.7746 -2.3450 -7.1250 0.0000 -0.0000 -13.7915 10.5104 11.3881 -0.0000 0.0000 0.0000 89.5336 -3.1327 9.7520 -15.9342 25.4314 -3.6177 0.0000 0.0000 2.0361 -6.2134 -33.1551 3.4075 7.1250 -0.0000 -0.0000 30.4867 -60.6307 -12.2748
14.4563 17.9696 20.0766 -2.5632 43.7170 -4.3604 0.0000 0.0000 0.0000 -17.3325 1.9061 1.6112 1.1279 6.7456 18.9639 1.1766 2.7884 -21.6682 4.7423 -13.0876 -39.6973 0.0000 0.0000 0.0000 21.6688 -5.5271 0.6155 -0.7350 -5.4773 15.2750 -0.1117 -5.6801 -10.7760 -0.1816 -2.7448 7.5691 -1.7895 1.0512 6.7038 1.6290 1.3378 -1.8378 2.5488 0.7558 -5.7605 2.5543 5.5433 -12.9504 -6.2681 8.7646 20.6611 -1.5087 3.7385 9.0105 0.0000 0.0000 0.0000 -97.2013 12.0236 14.8242 36.6413 -45.9492 -15.9817 -0.0000 0.0000 -1.9686 7.5957 -19.5368 -2.5534 -7.1250 0.0000 -0.0000 -13.3534 10.6892 10.9545 0.0000 0.0000 0.0000 88.6854 -2.5854 9.7605 -16.6194 26.3533 -3.9169 0.0000 0.0000 1.4061 -7.0558 -33.8815 3.9472 7.1250 -0.0000 -0.0000 30.3594 -61.4521 -12.8142
14.4894 17.9711 20.1078 -1.9352 43.7014 -3.5821 0.0000 0.0000 0.0000 -17.8026 2.1203 1.5704 1.0758 6.5929 18.5148 1.1970 2.8721 -21.8832 4.7358 -13.0800 -39.6687 0.0000 0.0000 0.0000 21.0767 -5.5677 0.4977 -0.7155 -5.4058 15.0696 -0.1111 -5.5089 -10.5776 -0.1666 -2.6294 7.2486 -1.9650 1.1182 6.7901 1.6466 1.4109 -1.7388 2.6570 0.7967 -5.7152 3.1335 6.0665 -12.4355 -6.7613 9.4646 20.3002 -1.6978 4.0837 8.8817 -0.0000 -0.0000 0.0000 -96.6346 11.7034 13.9674 36.2251 -45.6674 -15.6833 -0.0000 0.0000 -1.9577 8.1131 -19.0369 -2.6622 -7.1250 0.0000 -0.0000 -13.0291 11.1383 10.5503 -0.0000 -0.0000 0.0000 88.2678 -2.1172 9.0080 -17.4347 27.4273 -4.2856 0.0000 0.0000 0.5579 -8.0852 -34.5055 4.6009 7.1250 -0.0000 -0.0000 29.9539 -62.2392 -13.1845
14.5229 17.9755 20.1418 -0.7995 43.7338 -2.5265 0.0000 0.0000 0.0000 -18.7332 2.3495 1.5981 1.0267 6.4455 18.0826 1.2399 2.8226 -22.2222 4.7015 -13.0395 -39.5167 0.0000 0.0000 0.0000 20.0367 -5.7321 0.4758 -0.6898 -5.3095 14.7935 -0.1122 -5.3135 -10.3908 -0.1686 -2.6450 7.2919 -2.5436 1.2268 6.8580 1.5249 1.4952 -1.6327 2.8457 0.8534 -5.6609 3.9060 6.6402 -11.7745 -7.3015 10.2173 19.9590 -1.9321 4.4694 8.7578 -0.0000 -0.0000 0.0000 -96.0089 11.3979 13.0989 35.6970 -45.3034 -15.3067 -0.0000 0.0000 -2.0291 8.5313 -18.0631 -2.6631 -7.1250 0.0000 -0.0000 -12.7736 12.0617 10.0823 -0.0000 -0.0000 0.0000 88.0243 -1.6760 7.9259 -18.1913 28.4014 -4.6399 0.0000 -0.0000 -0.7045 -9.1705 -34.9438 5.2829 7.1250 -0.0000 -0.0000 29.2996 -62.8905 -13.3183
14.5527 17.9840 20.1740 0.0412 43.7537 -1.6547 0.0000 0.0000 0.0000 -19.3830 2.6474 1.5105 0.9879 6.3262 17.7338 1.2908 2.6881 -22.5805 4.6943 -13.0310 -39.4846 0.0000 0.0000 0.0000 19.3100 -5.7915 0.4370 -0.6652 -5.2159 14.5253 -0.1079 -5.3110 -10.2994 -0.2004 -2.8826 7.9522 -2.9127 1.3225 6.9113 1.4540 1.5844 -1.5440 2.9688 0.9065 -5.6135 4.6271 7.2889 -11.2009 -7.6859 11.0766 19.8068 -2.0890 4.9113 8.7206 0.0000 0.0000 0.0000 -95.4021 11.0766 12.1043 35.0293 -44.8330 -14.8340 -0.0000 0.0000 -2.0971 8.7233 -17.0232 -2.5720 -7.1250 0.0000 -0.0000 -12.6675 13.0699 9.7205 0.0000 0.0000 0.0000 87.7543 -1.1850 6.9993 -18.8063 29.1773 -4.9361 0.0000 -0.0000 -2.4757 -10.3329 -35.0374 5.9756 7.1250 -0.0000 -0.0000 28.1829 -63.2737 -13.0201
14.5820 17.9956 20.2011 0.6472 43.7353 -0.8651 0.0000 0.0000 0.0000 -19.8570 2.9232 1.2921 0.9565 6.2278 17.4468 1.3286 2.4928 -22.7991 4.7212 -13.0627 -39.6037 0.0000 0.0000 0.0000 18.7978 -5.7818 0.2874 -0.6443 -5.1350 14.2941 -0.0962 -5.4079 -10.1555 -0.2516 -3.2278 8.9135 -3.1027 1.4016 6.8940 1.4536 1.6736 -1.4887 3.0656 0.9551 -5.5584 5.1676 7.9820 -10.6547 -7.9198 12.0169 19.7418 -2.1549 5.3910 8.7135 -0.0000 -0.0000 0.0000 -94.8945 10.7637 10.9705 34.2023 -44.2340 -14.2540 -0.0000 0.0000 -2.0808 8.8569 -16.2601 -2.4983 -7.1250 0.0000 -0.0000 -12.5966 13.8115 9.4613 -0.0000 -0.0000 0.0000 87.4186 -0.7542 6.2618 -19.3994 29.9120 -5.2285 0.0000 -0.0000 -4.4081 -11.1068 -34.8817 6.4058 7.1250 -0.0000 -0.0000 27.1959 -63.3419 -12.5720
14.6038 18.0096 20.2242 0.3403 43.6850 -0.6147 0.0000 0.0000 0.0000 -19.4900 3.1550 0.8725 0.9412 6.1793 17.3054 1.3610 2.2704 -22.9607 4.7464 -13.0923 -39.7151 0.0000 0.0000 0.0000 19.1513 -5.5717 0.0334 -0.6259 -5.0626 14.0871 -0.0742 -5.6312 -9.9242 -0.2547 -3.2469 8.9668 -2.6559 1.4748 6.8453 1.6456 1.8234 -1.4851 2.9975 1.0179 -5.5300 5.5857 8.6689 -10.0383 -8.1261 12.9646 19.5839 -2.1951 5.8734 8.6604 0.0000 0.0000 0.0000 -94.4018 10.5456 10.0146 33.2704 -43.5368 -13.6079 -0.0000 0.0000 -2.5385 9.4464 -15.9030 -2.6103 -7.1250 0.0000 -0.0000 -12.2144 14.1229 9.0775 0.0000 0.0000 0.0000 87.1182 -0.4189 5.4844 -20.0220 30.6689 -5.5426 0.0000 -0.0000 -6.1240 -10.9643 -34.9787 6.3375 7.1250 -0.0000 -0.0000 27.4514 -63.3888 -12.7293
14.6209 18.0314 20.2428 -0.8252 43.4561 -0.9416 0.0000 0.0000 0.0000 -18.3290 3.4470 0.3746 0.9297 6.1423 17.1979 1.3839 2.0271 -23.0379 4.7979 -13.1525 -39.9422 0.0000 0.0000 0.0000 20.3002 -5.0688 -0.2274 -0.6116 -5.0054 13.9241 -0.0524 -5.8629 -9.7047 -0.2201 -3.0199 8.3341 -1.5522 1.5869 6.8287 1.9593 2.0903 -1.5014 2.6714 1.1203 -5.5273 6.1973 9.3766 -9.3620 -8.5498 13.9555 19.3304 -2.3351 6.3750 8.6057 0.0000 0.0000 0.0000 -93.8816 10.4320 8.9554 32.4509 -42.9037 -13.0468 -0.0000 0.0000 -2.4773 9.6460 -15.4213 -2.5877 -7.1250 0.0000 -0.0000 -12.0928 14.5852 8.8609 0.0000 0.0000 0.0000 86.9388 -0.2061 4.7491 -20.6804 31.4533 -5.8823 0.0000 -0.0000 -7.6396 -10.5503 -35.2803 6.1398 7.1250 -0.0000 -0.0000 28.2198 -63.5403 -13.2144
14.6403 18.0476 20.2590 -1.3391 43.2586 -0.9019 0.0000 0.0000 0.0000 -17.7977 3.6708 0.0012 0.9188 6.1072 17.0959 1.4051 1.7472 -23.0881 4.8906 -13.2596 -40.3480 0.0000 0.0000 0.0000 20.7988 -4.7107 -0.4184 -0.5965 -4.9444 13.7502 -0.0369 -5.9631 -9.4641 -0.2094 -2.9466 8.1300 -0.8589 1.7115 6.9103 2.0787 2.3265 -1.5355 2.3751 1.2176 -5.6000 6.9939 10.0716 -8.6711 -9.0590 14.9368 19.1476 -2.5310 6.8774 8.6049 0.0000 -0.0000 0.0000 -93.3364 10.4084 7.8741 31.6064 -42.2311 -12.4755 -0.0000 0.0000 -2.6908 9.8318 -15.2655 -2.6125 -7.1250 0.0000 -0.0000 -11.9724 14.7267 8.7316 0.0000 -0.0000 0.0000 86.9338 -0.2475 4.0173 -21.4192 32.3144 -6.2725 0.0000 -0.0000 -8.8800 -10.6227 -35.4009 6.2009 7.1250 -0.0000 -0.0000 28.2770 -63.6634 -13.3245
14.6605 18.0608 20.2758 -1.5148 43.1165 -0.7924 0.0000 0.0000 0.0000 -17.5601 3.8985 -0.1819 0.9097 6.0776 17.0098 1.4262 1.4956 -23.1518 4.9326 -13.3075 -40.5309 0.0000 0.0000 0.0000 20.9422 -4.5521 -0.4290 -0.5770 -4.8640 13.5212 -0.0229 -5.9692 -9.1252 -0.2158 -2.9905 8.2524 -0.4959 1.8654 6.9490 2.1898 2.5697 -1.4305 2.2580 1.3270 -5.5131 7.5071 10.6797 -8.1242 -9.3771 15.8035 19.0058 -2.6268 7.3179 8.6068 0.0000 0.0000 0.0000 -92.8792 10.2034 6.9358 30.7264 -41.5079 -11.8881 -0.0000 0.0000 -2.9639 9.9565 -14.9167 -2.5873 -7.1250 0.0000 -0.0000 -11.8973 15.0635 8.5866 0.0000 0.0000 0.0000 86.9056 -0.3182 3.2273 -22.1899 33.1909 -6.6895 0.0000 -0.0000 -9.8908 -11.0459 -35.3760 6.4479 7.1250 -0.0000 -0.0000 27.8004 -63.7546 -13.1412
14.6793 18.0755 20.2909 -1.5653 43.0123 -0.5678 0.0000 0.0000 0.0000 -17.4299 4.0833 -0.4394 0.9058 6.0651 16.9733 1.4457 1.2981 -23.2266 4.9331 -13.3080 -40.5327 0.0000 0.0000 0.0000 20.9600 -4.4329 -0.4851 -0.5551 -4.7727 13.2614 -0.0083 -5.9376 -8.6999 -0.2254 -3.0561 8.4349 -0.2256 2.0072 6.9824 2.2585 2.7864 -1.3520 2.1520 1.4260 -5.4502 7.8230 11.2337 -7.6722 -9.5329 16.5873 18.8787 -2.6451 7.7164 8.5982 -0.0000 0.0000 0.0000 -92.4574 10.0546 6.0451 29.8840 -40.7937 -11.3337 -0.0000 0.0000 -3.2252 10.0778 -14.3532 -2.5227 -7.1250 0.0000 -0.0000 -11.8305 15.6140 8.3929 -0.0000 0.0000 0.0000 86.8795 -0.4957 2.6390 -22.8816 33.9591 -7.0720 0.0000 -0.0000 -10.6697 -11.4342 -35.3498 6.6744 7.1250 -0.0000 -0.0000 27.3574 -63.8355 -12.9674
14.7012 18.0890 20.3071 -1.3243 42.9527 -0.1941 0.0000 0.0000 0.0000 -17.5914 4.2655 -0.6102 0.8980 6.0395 16.8991 1.4834 1.0934 -23.4412 4.9450 -13.3216 -40.5846 0.0000 0.0000 0.0000 20.6729 -4.5018 -0.5231 -0.5336 -4.6806 12.9998 0.0012 -5.8058 -8.2504 -0.2204 -3.0220 8.3401 -0.1485 2.1370 7.0326 2.2369 2.9641 -1.2776 2.0645 1.5103 -5.4030 8.1531 11.6966 -7.2127 -9.7807 17.2509 18.6523 -2.7129 8.0546 8.5571 0.0000 0.0000 0.0000 -92.0846 9.9823 5.1150 29.0391 -40.0554 -10.7859 -0.0000 0.0000 -3.4236 10.1853 -13.8579 -2.4640 -7.1250 0.0000 -0.0000 -11.7719 16.0983 8.2235 0.0000 0.0000 0.0000 86.8722 -0.7171 2.1153 -23.3831 34.5051 -7.3542 0.0000 -0.0000 -10.8026 -11.3039 -35.3952 6.6043 7.1250 -0.0000 -0.0000 27.5470 -63.8401 -13.0670
